<svg width="48" height="48" viewBox="0 0 48 48" fill="none" xmlns="http://www.w3.org/2000/svg">
<path d="M5.5395 48L42.462 48C45.516 48 48 45.516 48 42.462L48 5.5395C48 2.484 45.516 0 42.462 0L5.5395 0C2.484 0 0 2.484 0 5.538L0 42.462C0 45.516 2.484 48 5.5395 48ZM3.693 5.538C3.693 4.5195 4.521 3.6915 5.5395 3.6915L42.462 3.6915C43.479 3.6915 44.3085 4.521 44.3085 5.538L44.3085 42.462C44.3085 43.4805 43.479 44.3085 42.462 44.3085L5.5395 44.3085C4.521 44.3085 3.693 43.479 3.693 42.462L3.693 5.538ZM17.157 35.6175L28.7745 24L17.157 12.381C16.437 11.661 16.437 10.4925 17.157 9.7725C17.8785 9.051 19.047 9.051 19.7685 9.7725L32.691 22.695C33.4125 23.415 33.4125 24.585 32.691 25.305L19.7685 38.2275C19.0485 38.949 17.88 38.949 17.157 38.2275C16.797 37.8675 16.617 37.395 16.617 36.9225C16.617 36.4515 16.797 35.9775 17.157 35.6175Z" fill="#f0e3ca"/>
</svg>
