<svg width="48" height="48" viewBox="0 0 48 48" fill="none" xmlns="http://www.w3.org/2000/svg">
<path d="M42.4605 0H5.538C2.484 0 0 2.484 0 5.538V42.4605C0 45.516 2.484 48 5.538 48H42.4605C45.516 48 48 45.516 48 42.462V5.538C48 2.484 45.516 0 42.4605 0ZM44.307 42.462C44.307 43.4805 43.479 44.3085 42.4605 44.3085H5.538C4.521 44.3085 3.6915 43.479 3.6915 42.462V5.538C3.6915 4.5195 4.521 3.6915 5.538 3.6915H42.4605C43.479 3.6915 44.307 4.521 44.307 5.538V42.462ZM30.843 12.3825L19.2255 24L30.843 35.619C31.563 36.339 31.563 37.5075 30.843 38.2275C30.1215 38.949 28.953 38.949 28.2315 38.2275L15.309 25.305C14.5875 24.585 14.5875 23.415 15.309 22.695L28.2315 9.7725C28.9515 9.051 30.12 9.051 30.843 9.7725C31.203 10.1325 31.383 10.605 31.383 11.0775C31.383 11.5485 31.203 12.0225 30.843 12.3825Z" fill="#F0E3CA"/>
</svg>
